<mxfile host="65bd71144e">
    <diagram id="v9i8Jahp2nJWpb2peRrk" name="Página-2">
        <mxGraphModel dx="1109" dy="799" grid="1" gridSize="10" guides="1" tooltips="1" connect="1" arrows="1" fold="1" page="1" pageScale="1" pageWidth="827" pageHeight="1169" math="0" shadow="0">
            <root>
                <mxCell id="0"/>
                <mxCell id="1" parent="0"/>
                <mxCell id="od2V7SQeQcJkGa4sIdTc-1" value="Inicio" style="ellipse;whiteSpace=wrap;html=1;aspect=fixed;" parent="1" vertex="1">
                    <mxGeometry x="170" width="80" height="80" as="geometry"/>
                </mxCell>
                <mxCell id="od2V7SQeQcJkGa4sIdTc-2" value="cantidad,&lt;div&gt;&amp;nbsp;n, i=1,&lt;/div&gt;&lt;div&gt;&amp;nbsp;suma=0, ENTERO,&lt;/div&gt;&lt;div&gt;&amp;nbsp;media: FLOAT&lt;/div&gt;" style="rounded=1;whiteSpace=wrap;html=1;" parent="1" vertex="1">
                    <mxGeometry x="290" y="10" width="360" height="60" as="geometry"/>
                </mxCell>
                <mxCell id="od2V7SQeQcJkGa4sIdTc-29" value="" style="edgeStyle=orthogonalEdgeStyle;rounded=0;orthogonalLoop=1;jettySize=auto;html=1;" parent="1" source="od2V7SQeQcJkGa4sIdTc-3" target="od2V7SQeQcJkGa4sIdTc-5" edge="1">
                    <mxGeometry relative="1" as="geometry"/>
                </mxCell>
                <mxCell id="od2V7SQeQcJkGa4sIdTc-3" value="ESCRIBIR: &quot;¿Cuántos números desea introducir?&quot;&lt;br&gt;LEER: cantidad" style="shape=parallelogram;perimeter=parallelogramPerimeter;whiteSpace=wrap;html=1;" parent="1" vertex="1">
                    <mxGeometry x="290" y="110" width="360" height="60" as="geometry"/>
                </mxCell>
                <mxCell id="od2V7SQeQcJkGa4sIdTc-28" style="edgeStyle=orthogonalEdgeStyle;rounded=0;orthogonalLoop=1;jettySize=auto;html=1;exitX=1;exitY=0.5;exitDx=0;exitDy=0;entryX=1;entryY=0.5;entryDx=0;entryDy=0;" parent="1" source="od2V7SQeQcJkGa4sIdTc-5" target="od2V7SQeQcJkGa4sIdTc-3" edge="1">
                    <mxGeometry relative="1" as="geometry"/>
                </mxCell>
                <mxCell id="od2V7SQeQcJkGa4sIdTc-5" value="cantidad &amp;gt; 0" style="rhombus;whiteSpace=wrap;html=1;" parent="1" vertex="1">
                    <mxGeometry x="414" y="230" width="110" height="80" as="geometry"/>
                </mxCell>
                <mxCell id="od2V7SQeQcJkGa4sIdTc-6" value="i &amp;lt;= cantidad" style="rhombus;whiteSpace=wrap;html=1;" parent="1" vertex="1">
                    <mxGeometry x="229" y="280" width="185" height="80" as="geometry"/>
                </mxCell>
                <mxCell id="od2V7SQeQcJkGa4sIdTc-30" value="" style="edgeStyle=orthogonalEdgeStyle;rounded=0;orthogonalLoop=1;jettySize=auto;html=1;" parent="1" source="od2V7SQeQcJkGa4sIdTc-7" target="od2V7SQeQcJkGa4sIdTc-9" edge="1">
                    <mxGeometry relative="1" as="geometry"/>
                </mxCell>
                <mxCell id="od2V7SQeQcJkGa4sIdTc-7" value="ESCRIBIR: &quot;Introduce un número&quot;&lt;div&gt;LEER: n&lt;/div&gt;" style="shape=parallelogram;perimeter=parallelogramPerimeter;whiteSpace=wrap;html=1;" parent="1" vertex="1">
                    <mxGeometry x="39" y="380" width="271" height="60" as="geometry"/>
                </mxCell>
                <mxCell id="od2V7SQeQcJkGa4sIdTc-9" value="suma = suma + n" style="rounded=1;whiteSpace=wrap;html=1;" parent="1" vertex="1">
                    <mxGeometry x="170" y="500" width="140" height="60" as="geometry"/>
                </mxCell>
                <mxCell id="od2V7SQeQcJkGa4sIdTc-10" value="i = i + 1" style="rounded=1;whiteSpace=wrap;html=1;" parent="1" vertex="1">
                    <mxGeometry x="349" y="420" width="130" height="60" as="geometry"/>
                </mxCell>
                <mxCell id="od2V7SQeQcJkGa4sIdTc-11" value="media = suma / cantidad" style="rounded=1;whiteSpace=wrap;html=1;" parent="1" vertex="1">
                    <mxGeometry x="530" y="350" width="180" height="60" as="geometry"/>
                </mxCell>
                <mxCell id="od2V7SQeQcJkGa4sIdTc-12" value="ESCRIBIR: &quot;La media es media&quot;" style="rounded=1;whiteSpace=wrap;html=1;" parent="1" vertex="1">
                    <mxGeometry x="520" y="440" width="200" height="60" as="geometry"/>
                </mxCell>
                <mxCell id="od2V7SQeQcJkGa4sIdTc-13" value="Fin" style="ellipse;whiteSpace=wrap;html=1;aspect=fixed;" parent="1" vertex="1">
                    <mxGeometry x="490" y="530" width="80" height="80" as="geometry"/>
                </mxCell>
                <mxCell id="od2V7SQeQcJkGa4sIdTc-14" value="" style="endArrow=block;rounded=1;html=1;" parent="1" source="od2V7SQeQcJkGa4sIdTc-1" target="od2V7SQeQcJkGa4sIdTc-2" edge="1">
                    <mxGeometry relative="1" as="geometry"/>
                </mxCell>
                <mxCell id="od2V7SQeQcJkGa4sIdTc-15" value="" style="endArrow=block;rounded=1;html=1;" parent="1" source="od2V7SQeQcJkGa4sIdTc-2" target="od2V7SQeQcJkGa4sIdTc-3" edge="1">
                    <mxGeometry relative="1" as="geometry"/>
                </mxCell>
                <mxCell id="od2V7SQeQcJkGa4sIdTc-18" value="Sí" style="endArrow=block;rounded=1;html=1;" parent="1" source="od2V7SQeQcJkGa4sIdTc-5" target="od2V7SQeQcJkGa4sIdTc-6" edge="1">
                    <mxGeometry relative="1" as="geometry"/>
                </mxCell>
                <mxCell id="od2V7SQeQcJkGa4sIdTc-20" value="Sí" style="endArrow=block;rounded=1;html=1;" parent="1" source="od2V7SQeQcJkGa4sIdTc-6" target="od2V7SQeQcJkGa4sIdTc-7" edge="1">
                    <mxGeometry relative="1" as="geometry"/>
                </mxCell>
                <mxCell id="od2V7SQeQcJkGa4sIdTc-21" value="No" style="endArrow=block;rounded=1;html=1;" parent="1" source="od2V7SQeQcJkGa4sIdTc-6" target="od2V7SQeQcJkGa4sIdTc-11" edge="1">
                    <mxGeometry relative="1" as="geometry"/>
                </mxCell>
                <mxCell id="od2V7SQeQcJkGa4sIdTc-24" value="" style="endArrow=block;rounded=1;html=1;" parent="1" source="od2V7SQeQcJkGa4sIdTc-9" target="od2V7SQeQcJkGa4sIdTc-10" edge="1">
                    <mxGeometry relative="1" as="geometry"/>
                </mxCell>
                <mxCell id="od2V7SQeQcJkGa4sIdTc-25" value="" style="endArrow=block;rounded=1;html=1;" parent="1" source="od2V7SQeQcJkGa4sIdTc-10" target="od2V7SQeQcJkGa4sIdTc-6" edge="1">
                    <mxGeometry relative="1" as="geometry"/>
                </mxCell>
                <mxCell id="od2V7SQeQcJkGa4sIdTc-26" value="" style="endArrow=block;rounded=1;html=1;" parent="1" source="od2V7SQeQcJkGa4sIdTc-11" target="od2V7SQeQcJkGa4sIdTc-12" edge="1">
                    <mxGeometry relative="1" as="geometry"/>
                </mxCell>
                <mxCell id="od2V7SQeQcJkGa4sIdTc-27" value="" style="endArrow=block;rounded=1;html=1;" parent="1" source="od2V7SQeQcJkGa4sIdTc-12" target="od2V7SQeQcJkGa4sIdTc-13" edge="1">
                    <mxGeometry relative="1" as="geometry"/>
                </mxCell>
            </root>
        </mxGraphModel>
    </diagram>
</mxfile>